<mxfile host="app.diagrams.net" modified="2024-06-09T14:01:19.218Z" agent="Mozilla/5.0 (Windows NT 10.0; Win64; x64) AppleWebKit/537.36 (KHTML, like Gecko) Chrome/123.0.0.0 Safari/537.36 OPR/109.0.0.0" etag="2L9J3aBfKvdsQieNfBke" version="24.5.2" type="device">
  <diagram name="Strona-1" id="5cFNHoQbe80OT5wnuh4u">
    <mxGraphModel dx="1784" dy="911" grid="1" gridSize="10" guides="1" tooltips="1" connect="1" arrows="1" fold="1" page="1" pageScale="1" pageWidth="827" pageHeight="1169" math="0" shadow="0">
      <root>
        <mxCell id="0" />
        <mxCell id="1" parent="0" />
        <mxCell id="t_oKpIWRtJAieLj8-OlJ-1" value="autostop.exe" style="html=1;dropTarget=0;whiteSpace=wrap;" vertex="1" parent="1">
          <mxGeometry x="100" y="70" width="210" height="110" as="geometry" />
        </mxCell>
        <mxCell id="t_oKpIWRtJAieLj8-OlJ-2" value="" style="shape=module;jettyWidth=8;jettyHeight=4;" vertex="1" parent="t_oKpIWRtJAieLj8-OlJ-1">
          <mxGeometry x="1" width="20" height="20" relative="1" as="geometry">
            <mxPoint x="-27" y="7" as="offset" />
          </mxGeometry>
        </mxCell>
        <mxCell id="t_oKpIWRtJAieLj8-OlJ-6" value="" style="rounded=0;orthogonalLoop=1;jettySize=auto;html=1;endArrow=halfCircle;endFill=0;endSize=6;strokeWidth=1;sketch=0;exitX=0.5;exitY=1;exitDx=0;exitDy=0;" edge="1" target="t_oKpIWRtJAieLj8-OlJ-8" parent="1" source="t_oKpIWRtJAieLj8-OlJ-1">
          <mxGeometry relative="1" as="geometry">
            <mxPoint x="130" y="305" as="sourcePoint" />
          </mxGeometry>
        </mxCell>
        <mxCell id="t_oKpIWRtJAieLj8-OlJ-7" value="" style="rounded=0;orthogonalLoop=1;jettySize=auto;html=1;endArrow=oval;endFill=0;sketch=0;sourcePerimeterSpacing=0;targetPerimeterSpacing=0;endSize=10;exitX=0.5;exitY=0;exitDx=0;exitDy=0;" edge="1" target="t_oKpIWRtJAieLj8-OlJ-8" parent="1" source="t_oKpIWRtJAieLj8-OlJ-9">
          <mxGeometry relative="1" as="geometry">
            <mxPoint x="110" y="360" as="sourcePoint" />
          </mxGeometry>
        </mxCell>
        <mxCell id="t_oKpIWRtJAieLj8-OlJ-8" value="" style="ellipse;whiteSpace=wrap;html=1;align=center;aspect=fixed;fillColor=none;strokeColor=none;resizable=0;perimeter=centerPerimeter;rotatable=0;allowArrows=0;points=[];outlineConnect=1;" vertex="1" parent="1">
          <mxGeometry x="150" y="310" width="10" height="10" as="geometry" />
        </mxCell>
        <mxCell id="t_oKpIWRtJAieLj8-OlJ-9" value="szyfrowanie.ddl" style="html=1;dropTarget=0;whiteSpace=wrap;" vertex="1" parent="1">
          <mxGeometry x="40" y="380" width="140" height="50" as="geometry" />
        </mxCell>
        <mxCell id="t_oKpIWRtJAieLj8-OlJ-10" value="" style="shape=module;jettyWidth=8;jettyHeight=4;" vertex="1" parent="t_oKpIWRtJAieLj8-OlJ-9">
          <mxGeometry x="1" width="20" height="20" relative="1" as="geometry">
            <mxPoint x="-27" y="7" as="offset" />
          </mxGeometry>
        </mxCell>
        <mxCell id="t_oKpIWRtJAieLj8-OlJ-12" value="" style="rounded=0;orthogonalLoop=1;jettySize=auto;html=1;endArrow=oval;endFill=0;sketch=0;sourcePerimeterSpacing=0;targetPerimeterSpacing=0;endSize=10;exitX=0.5;exitY=1;exitDx=0;exitDy=0;" edge="1" target="t_oKpIWRtJAieLj8-OlJ-13" parent="1" source="t_oKpIWRtJAieLj8-OlJ-9">
          <mxGeometry relative="1" as="geometry">
            <mxPoint x="115" y="565" as="sourcePoint" />
          </mxGeometry>
        </mxCell>
        <mxCell id="t_oKpIWRtJAieLj8-OlJ-13" value="" style="ellipse;whiteSpace=wrap;html=1;align=center;aspect=fixed;fillColor=none;strokeColor=none;resizable=0;perimeter=centerPerimeter;rotatable=0;allowArrows=0;points=[];outlineConnect=1;" vertex="1" parent="1">
          <mxGeometry x="105" y="460" width="10" height="10" as="geometry" />
        </mxCell>
        <mxCell id="t_oKpIWRtJAieLj8-OlJ-14" value="RSA" style="text;align=center;fontStyle=1;verticalAlign=middle;spacingLeft=3;spacingRight=3;strokeColor=none;rotatable=0;points=[[0,0.5],[1,0.5]];portConstraint=eastwest;html=1;" vertex="1" parent="1">
          <mxGeometry x="40" y="450" width="80" height="26" as="geometry" />
        </mxCell>
        <mxCell id="t_oKpIWRtJAieLj8-OlJ-15" value="&lt;br&gt;&lt;b&gt;Baza użytkowników&lt;/b&gt;" style="html=1;dropTarget=0;whiteSpace=wrap;" vertex="1" parent="1">
          <mxGeometry x="520" y="30" width="170" height="70" as="geometry" />
        </mxCell>
        <mxCell id="t_oKpIWRtJAieLj8-OlJ-16" value="" style="shape=module;jettyWidth=8;jettyHeight=4;" vertex="1" parent="t_oKpIWRtJAieLj8-OlJ-15">
          <mxGeometry x="1" width="20" height="20" relative="1" as="geometry">
            <mxPoint x="-27" y="7" as="offset" />
          </mxGeometry>
        </mxCell>
        <mxCell id="t_oKpIWRtJAieLj8-OlJ-21" value="Baza części" style="html=1;dropTarget=0;whiteSpace=wrap;" vertex="1" parent="1">
          <mxGeometry x="530" y="140" width="170" height="60" as="geometry" />
        </mxCell>
        <mxCell id="t_oKpIWRtJAieLj8-OlJ-22" value="" style="shape=module;jettyWidth=8;jettyHeight=4;" vertex="1" parent="t_oKpIWRtJAieLj8-OlJ-21">
          <mxGeometry x="1" width="20" height="20" relative="1" as="geometry">
            <mxPoint x="-27" y="7" as="offset" />
          </mxGeometry>
        </mxCell>
        <mxCell id="t_oKpIWRtJAieLj8-OlJ-24" value="" style="rounded=0;orthogonalLoop=1;jettySize=auto;html=1;endArrow=halfCircle;endFill=0;endSize=6;strokeWidth=1;sketch=0;exitX=1;exitY=0.75;exitDx=0;exitDy=0;" edge="1" parent="1" source="t_oKpIWRtJAieLj8-OlJ-1">
          <mxGeometry relative="1" as="geometry">
            <mxPoint x="390" y="195" as="sourcePoint" />
            <mxPoint x="410" y="150" as="targetPoint" />
          </mxGeometry>
        </mxCell>
        <mxCell id="t_oKpIWRtJAieLj8-OlJ-25" value="" style="rounded=0;orthogonalLoop=1;jettySize=auto;html=1;endArrow=oval;endFill=0;sketch=0;sourcePerimeterSpacing=0;targetPerimeterSpacing=0;endSize=10;exitX=0;exitY=0.75;exitDx=0;exitDy=0;" edge="1" parent="1" source="t_oKpIWRtJAieLj8-OlJ-21">
          <mxGeometry relative="1" as="geometry">
            <mxPoint x="350" y="195" as="sourcePoint" />
            <mxPoint x="410" y="150" as="targetPoint" />
          </mxGeometry>
        </mxCell>
        <mxCell id="t_oKpIWRtJAieLj8-OlJ-26" value="" style="ellipse;whiteSpace=wrap;html=1;align=center;aspect=fixed;fillColor=none;strokeColor=none;resizable=0;perimeter=centerPerimeter;rotatable=0;allowArrows=0;points=[];outlineConnect=1;" vertex="1" parent="1">
          <mxGeometry x="365" y="190" width="10" height="10" as="geometry" />
        </mxCell>
        <mxCell id="t_oKpIWRtJAieLj8-OlJ-27" value="" style="rounded=0;orthogonalLoop=1;jettySize=auto;html=1;endArrow=halfCircle;endFill=0;endSize=6;strokeWidth=1;sketch=0;exitX=1;exitY=0.5;exitDx=0;exitDy=0;" edge="1" target="t_oKpIWRtJAieLj8-OlJ-29" parent="1" source="t_oKpIWRtJAieLj8-OlJ-1">
          <mxGeometry relative="1" as="geometry">
            <mxPoint x="400" y="85" as="sourcePoint" />
          </mxGeometry>
        </mxCell>
        <mxCell id="t_oKpIWRtJAieLj8-OlJ-28" value="" style="rounded=0;orthogonalLoop=1;jettySize=auto;html=1;endArrow=oval;endFill=0;sketch=0;sourcePerimeterSpacing=0;targetPerimeterSpacing=0;endSize=10;exitX=0.005;exitY=0.16;exitDx=0;exitDy=0;exitPerimeter=0;" edge="1" target="t_oKpIWRtJAieLj8-OlJ-29" parent="1" source="t_oKpIWRtJAieLj8-OlJ-15">
          <mxGeometry relative="1" as="geometry">
            <mxPoint x="360" y="85" as="sourcePoint" />
          </mxGeometry>
        </mxCell>
        <mxCell id="t_oKpIWRtJAieLj8-OlJ-29" value="" style="ellipse;whiteSpace=wrap;html=1;align=center;aspect=fixed;fillColor=none;strokeColor=none;resizable=0;perimeter=centerPerimeter;rotatable=0;allowArrows=0;points=[];outlineConnect=1;" vertex="1" parent="1">
          <mxGeometry x="375" y="80" width="10" height="10" as="geometry" />
        </mxCell>
        <mxCell id="t_oKpIWRtJAieLj8-OlJ-31" value="" style="rounded=0;orthogonalLoop=1;jettySize=auto;html=1;endArrow=oval;endFill=0;sketch=0;sourcePerimeterSpacing=0;targetPerimeterSpacing=0;endSize=10;exitX=1;exitY=0.5;exitDx=0;exitDy=0;" edge="1" target="t_oKpIWRtJAieLj8-OlJ-32" parent="1" source="t_oKpIWRtJAieLj8-OlJ-21">
          <mxGeometry relative="1" as="geometry">
            <mxPoint x="720" y="195" as="sourcePoint" />
          </mxGeometry>
        </mxCell>
        <mxCell id="t_oKpIWRtJAieLj8-OlJ-32" value="" style="ellipse;whiteSpace=wrap;html=1;align=center;aspect=fixed;fillColor=none;strokeColor=none;resizable=0;perimeter=centerPerimeter;rotatable=0;allowArrows=0;points=[];outlineConnect=1;" vertex="1" parent="1">
          <mxGeometry x="780" y="190" width="10" height="10" as="geometry" />
        </mxCell>
        <mxCell id="t_oKpIWRtJAieLj8-OlJ-33" value="" style="rounded=0;orthogonalLoop=1;jettySize=auto;html=1;endArrow=oval;endFill=0;sketch=0;sourcePerimeterSpacing=0;targetPerimeterSpacing=0;endSize=10;exitX=1;exitY=0.5;exitDx=0;exitDy=0;" edge="1" parent="1" source="t_oKpIWRtJAieLj8-OlJ-15">
          <mxGeometry relative="1" as="geometry">
            <mxPoint x="710" y="180" as="sourcePoint" />
            <mxPoint x="760" y="70" as="targetPoint" />
          </mxGeometry>
        </mxCell>
        <mxCell id="t_oKpIWRtJAieLj8-OlJ-34" value="Oracle" style="text;align=center;fontStyle=1;verticalAlign=middle;spacingLeft=3;spacingRight=3;strokeColor=none;rotatable=0;points=[[0,0.5],[1,0.5]];portConstraint=eastwest;html=1;" vertex="1" parent="1">
          <mxGeometry x="745" y="80" width="80" height="26" as="geometry" />
        </mxCell>
        <mxCell id="t_oKpIWRtJAieLj8-OlJ-35" value="Oracle" style="text;align=center;fontStyle=1;verticalAlign=middle;spacingLeft=3;spacingRight=3;strokeColor=none;rotatable=0;points=[[0,0.5],[1,0.5]];portConstraint=eastwest;html=1;" vertex="1" parent="1">
          <mxGeometry x="745" y="200" width="80" height="26" as="geometry" />
        </mxCell>
        <mxCell id="t_oKpIWRtJAieLj8-OlJ-36" value="Rezerwacja" style="html=1;dropTarget=0;whiteSpace=wrap;" vertex="1" parent="1">
          <mxGeometry x="450" y="250" width="140" height="60" as="geometry" />
        </mxCell>
        <mxCell id="t_oKpIWRtJAieLj8-OlJ-37" value="" style="shape=module;jettyWidth=8;jettyHeight=4;" vertex="1" parent="t_oKpIWRtJAieLj8-OlJ-36">
          <mxGeometry x="1" width="20" height="20" relative="1" as="geometry">
            <mxPoint x="-27" y="7" as="offset" />
          </mxGeometry>
        </mxCell>
        <mxCell id="t_oKpIWRtJAieLj8-OlJ-38" value="" style="rounded=0;orthogonalLoop=1;jettySize=auto;html=1;endArrow=halfCircle;endFill=0;endSize=6;strokeWidth=1;sketch=0;exitX=0;exitY=0.25;exitDx=0;exitDy=0;" edge="1" target="t_oKpIWRtJAieLj8-OlJ-40" parent="1" source="t_oKpIWRtJAieLj8-OlJ-36">
          <mxGeometry relative="1" as="geometry">
            <mxPoint x="425" y="295" as="sourcePoint" />
          </mxGeometry>
        </mxCell>
        <mxCell id="t_oKpIWRtJAieLj8-OlJ-39" value="" style="rounded=0;orthogonalLoop=1;jettySize=auto;html=1;endArrow=oval;endFill=0;sketch=0;sourcePerimeterSpacing=0;targetPerimeterSpacing=0;endSize=10;exitX=0.962;exitY=0.989;exitDx=0;exitDy=0;exitPerimeter=0;" edge="1" target="t_oKpIWRtJAieLj8-OlJ-40" parent="1" source="t_oKpIWRtJAieLj8-OlJ-1">
          <mxGeometry relative="1" as="geometry">
            <mxPoint x="385" y="295" as="sourcePoint" />
          </mxGeometry>
        </mxCell>
        <mxCell id="t_oKpIWRtJAieLj8-OlJ-40" value="" style="ellipse;whiteSpace=wrap;html=1;align=center;aspect=fixed;fillColor=none;strokeColor=none;resizable=0;perimeter=centerPerimeter;rotatable=0;allowArrows=0;points=[];outlineConnect=1;" vertex="1" parent="1">
          <mxGeometry x="355" y="240" width="10" height="10" as="geometry" />
        </mxCell>
        <mxCell id="t_oKpIWRtJAieLj8-OlJ-41" value="Naprawa" style="html=1;dropTarget=0;whiteSpace=wrap;" vertex="1" parent="1">
          <mxGeometry x="324" y="410" width="126" height="60" as="geometry" />
        </mxCell>
        <mxCell id="t_oKpIWRtJAieLj8-OlJ-42" value="" style="shape=module;jettyWidth=8;jettyHeight=4;" vertex="1" parent="t_oKpIWRtJAieLj8-OlJ-41">
          <mxGeometry x="1" width="20" height="20" relative="1" as="geometry">
            <mxPoint x="-27" y="7" as="offset" />
          </mxGeometry>
        </mxCell>
        <mxCell id="t_oKpIWRtJAieLj8-OlJ-43" value="" style="rounded=0;orthogonalLoop=1;jettySize=auto;html=1;endArrow=halfCircle;endFill=0;endSize=6;strokeWidth=1;sketch=0;exitX=0.5;exitY=0;exitDx=0;exitDy=0;" edge="1" parent="1" source="t_oKpIWRtJAieLj8-OlJ-41">
          <mxGeometry relative="1" as="geometry">
            <mxPoint x="430" y="355" as="sourcePoint" />
            <mxPoint x="350" y="360" as="targetPoint" />
          </mxGeometry>
        </mxCell>
        <mxCell id="t_oKpIWRtJAieLj8-OlJ-44" value="" style="rounded=0;orthogonalLoop=1;jettySize=auto;html=1;endArrow=oval;endFill=0;sketch=0;sourcePerimeterSpacing=0;targetPerimeterSpacing=0;endSize=10;exitX=0.832;exitY=0.996;exitDx=0;exitDy=0;exitPerimeter=0;" edge="1" parent="1" source="t_oKpIWRtJAieLj8-OlJ-1">
          <mxGeometry relative="1" as="geometry">
            <mxPoint x="390" y="355" as="sourcePoint" />
            <mxPoint x="350" y="360" as="targetPoint" />
          </mxGeometry>
        </mxCell>
        <mxCell id="t_oKpIWRtJAieLj8-OlJ-45" value="" style="ellipse;whiteSpace=wrap;html=1;align=center;aspect=fixed;fillColor=none;strokeColor=none;resizable=0;perimeter=centerPerimeter;rotatable=0;allowArrows=0;points=[];outlineConnect=1;" vertex="1" parent="1">
          <mxGeometry x="405" y="350" width="10" height="10" as="geometry" />
        </mxCell>
        <mxCell id="t_oKpIWRtJAieLj8-OlJ-46" value="" style="rounded=0;orthogonalLoop=1;jettySize=auto;html=1;endArrow=halfCircle;endFill=0;endSize=6;strokeWidth=1;sketch=0;exitX=1;exitY=0.5;exitDx=0;exitDy=0;" edge="1" target="t_oKpIWRtJAieLj8-OlJ-48" parent="1" source="t_oKpIWRtJAieLj8-OlJ-41">
          <mxGeometry relative="1" as="geometry">
            <mxPoint x="530" y="445" as="sourcePoint" />
          </mxGeometry>
        </mxCell>
        <mxCell id="t_oKpIWRtJAieLj8-OlJ-47" value="" style="rounded=0;orthogonalLoop=1;jettySize=auto;html=1;endArrow=oval;endFill=0;sketch=0;sourcePerimeterSpacing=0;targetPerimeterSpacing=0;endSize=10;exitX=0;exitY=0.5;exitDx=0;exitDy=0;" edge="1" target="t_oKpIWRtJAieLj8-OlJ-48" parent="1" source="t_oKpIWRtJAieLj8-OlJ-49">
          <mxGeometry relative="1" as="geometry">
            <mxPoint x="490" y="445" as="sourcePoint" />
          </mxGeometry>
        </mxCell>
        <mxCell id="t_oKpIWRtJAieLj8-OlJ-48" value="" style="ellipse;whiteSpace=wrap;html=1;align=center;aspect=fixed;fillColor=none;strokeColor=none;resizable=0;perimeter=centerPerimeter;rotatable=0;allowArrows=0;points=[];outlineConnect=1;" vertex="1" parent="1">
          <mxGeometry x="505" y="440" width="10" height="10" as="geometry" />
        </mxCell>
        <mxCell id="t_oKpIWRtJAieLj8-OlJ-49" value="Magazyn" style="html=1;dropTarget=0;whiteSpace=wrap;" vertex="1" parent="1">
          <mxGeometry x="550" y="400" width="180" height="90" as="geometry" />
        </mxCell>
        <mxCell id="t_oKpIWRtJAieLj8-OlJ-50" value="" style="shape=module;jettyWidth=8;jettyHeight=4;" vertex="1" parent="t_oKpIWRtJAieLj8-OlJ-49">
          <mxGeometry x="1" width="20" height="20" relative="1" as="geometry">
            <mxPoint x="-27" y="7" as="offset" />
          </mxGeometry>
        </mxCell>
        <mxCell id="t_oKpIWRtJAieLj8-OlJ-52" value="" style="rounded=0;orthogonalLoop=1;jettySize=auto;html=1;endArrow=halfCircle;endFill=0;endSize=6;strokeWidth=1;sketch=0;" edge="1" target="t_oKpIWRtJAieLj8-OlJ-54" parent="1">
          <mxGeometry relative="1" as="geometry">
            <mxPoint x="680" y="390" as="sourcePoint" />
          </mxGeometry>
        </mxCell>
        <mxCell id="t_oKpIWRtJAieLj8-OlJ-53" value="" style="rounded=0;orthogonalLoop=1;jettySize=auto;html=1;endArrow=oval;endFill=0;sketch=0;sourcePerimeterSpacing=0;targetPerimeterSpacing=0;endSize=10;exitX=0.75;exitY=1;exitDx=0;exitDy=0;" edge="1" target="t_oKpIWRtJAieLj8-OlJ-54" parent="1" source="t_oKpIWRtJAieLj8-OlJ-21">
          <mxGeometry relative="1" as="geometry">
            <mxPoint x="660" y="325" as="sourcePoint" />
          </mxGeometry>
        </mxCell>
        <mxCell id="t_oKpIWRtJAieLj8-OlJ-54" value="" style="ellipse;whiteSpace=wrap;html=1;align=center;aspect=fixed;fillColor=none;strokeColor=none;resizable=0;perimeter=centerPerimeter;rotatable=0;allowArrows=0;points=[];outlineConnect=1;" vertex="1" parent="1">
          <mxGeometry x="675" y="320" width="10" height="10" as="geometry" />
        </mxCell>
        <mxCell id="t_oKpIWRtJAieLj8-OlJ-55" value="Mechanik" style="html=1;dropTarget=0;whiteSpace=wrap;" vertex="1" parent="1">
          <mxGeometry x="220" y="540" width="130" height="60" as="geometry" />
        </mxCell>
        <mxCell id="t_oKpIWRtJAieLj8-OlJ-56" value="" style="shape=module;jettyWidth=8;jettyHeight=4;" vertex="1" parent="t_oKpIWRtJAieLj8-OlJ-55">
          <mxGeometry x="1" width="20" height="20" relative="1" as="geometry">
            <mxPoint x="-27" y="7" as="offset" />
          </mxGeometry>
        </mxCell>
        <mxCell id="t_oKpIWRtJAieLj8-OlJ-58" value="" style="rounded=0;orthogonalLoop=1;jettySize=auto;html=1;endArrow=halfCircle;endFill=0;endSize=6;strokeWidth=1;sketch=0;exitX=0.25;exitY=1;exitDx=0;exitDy=0;" edge="1" parent="1" source="t_oKpIWRtJAieLj8-OlJ-41">
          <mxGeometry relative="1" as="geometry">
            <mxPoint x="520" y="395" as="sourcePoint" />
            <mxPoint x="340" y="500" as="targetPoint" />
          </mxGeometry>
        </mxCell>
        <mxCell id="t_oKpIWRtJAieLj8-OlJ-59" value="" style="rounded=0;orthogonalLoop=1;jettySize=auto;html=1;endArrow=oval;endFill=0;sketch=0;sourcePerimeterSpacing=0;targetPerimeterSpacing=0;endSize=10;exitX=0.643;exitY=-0.02;exitDx=0;exitDy=0;exitPerimeter=0;" edge="1" parent="1" source="t_oKpIWRtJAieLj8-OlJ-55">
          <mxGeometry relative="1" as="geometry">
            <mxPoint x="480" y="395" as="sourcePoint" />
            <mxPoint x="340" y="500" as="targetPoint" />
          </mxGeometry>
        </mxCell>
        <mxCell id="t_oKpIWRtJAieLj8-OlJ-60" value="" style="ellipse;whiteSpace=wrap;html=1;align=center;aspect=fixed;fillColor=none;strokeColor=none;resizable=0;perimeter=centerPerimeter;rotatable=0;allowArrows=0;points=[];outlineConnect=1;" vertex="1" parent="1">
          <mxGeometry x="495" y="390" width="10" height="10" as="geometry" />
        </mxCell>
        <mxCell id="t_oKpIWRtJAieLj8-OlJ-61" value="" style="rounded=0;orthogonalLoop=1;jettySize=auto;html=1;endArrow=halfCircle;endFill=0;endSize=6;strokeWidth=1;sketch=0;exitX=0.169;exitY=-0.007;exitDx=0;exitDy=0;exitPerimeter=0;" edge="1" target="t_oKpIWRtJAieLj8-OlJ-63" parent="1" source="t_oKpIWRtJAieLj8-OlJ-55">
          <mxGeometry relative="1" as="geometry">
            <mxPoint x="260" y="405" as="sourcePoint" />
          </mxGeometry>
        </mxCell>
        <mxCell id="t_oKpIWRtJAieLj8-OlJ-62" value="" style="rounded=0;orthogonalLoop=1;jettySize=auto;html=1;endArrow=oval;endFill=0;sketch=0;sourcePerimeterSpacing=0;targetPerimeterSpacing=0;endSize=10;exitX=0.661;exitY=1.018;exitDx=0;exitDy=0;exitPerimeter=0;" edge="1" target="t_oKpIWRtJAieLj8-OlJ-63" parent="1" source="t_oKpIWRtJAieLj8-OlJ-1">
          <mxGeometry relative="1" as="geometry">
            <mxPoint x="220" y="405" as="sourcePoint" />
          </mxGeometry>
        </mxCell>
        <mxCell id="t_oKpIWRtJAieLj8-OlJ-63" value="" style="ellipse;whiteSpace=wrap;html=1;align=center;aspect=fixed;fillColor=none;strokeColor=none;resizable=0;perimeter=centerPerimeter;rotatable=0;allowArrows=0;points=[];outlineConnect=1;" vertex="1" parent="1">
          <mxGeometry x="235" y="400" width="10" height="10" as="geometry" />
        </mxCell>
        <mxCell id="t_oKpIWRtJAieLj8-OlJ-65" value="" style="ellipse;whiteSpace=wrap;html=1;align=center;aspect=fixed;fillColor=none;strokeColor=none;resizable=0;perimeter=centerPerimeter;rotatable=0;allowArrows=0;points=[];outlineConnect=1;" vertex="1" parent="1">
          <mxGeometry x="145" y="40" width="10" height="10" as="geometry" />
        </mxCell>
        <mxCell id="t_oKpIWRtJAieLj8-OlJ-68" value="Klient" style="html=1;dropTarget=0;whiteSpace=wrap;" vertex="1" parent="1">
          <mxGeometry x="438.5" y="720" width="163" height="60" as="geometry" />
        </mxCell>
        <mxCell id="t_oKpIWRtJAieLj8-OlJ-69" value="" style="shape=module;jettyWidth=8;jettyHeight=4;" vertex="1" parent="t_oKpIWRtJAieLj8-OlJ-68">
          <mxGeometry x="1" width="20" height="20" relative="1" as="geometry">
            <mxPoint x="-27" y="7" as="offset" />
          </mxGeometry>
        </mxCell>
        <mxCell id="t_oKpIWRtJAieLj8-OlJ-70" value="Faktura" style="html=1;dropTarget=0;whiteSpace=wrap;" vertex="1" parent="1">
          <mxGeometry x="515" y="580" width="140" height="55" as="geometry" />
        </mxCell>
        <mxCell id="t_oKpIWRtJAieLj8-OlJ-71" value="" style="shape=module;jettyWidth=8;jettyHeight=4;" vertex="1" parent="t_oKpIWRtJAieLj8-OlJ-70">
          <mxGeometry x="1" width="20" height="20" relative="1" as="geometry">
            <mxPoint x="-27" y="7" as="offset" />
          </mxGeometry>
        </mxCell>
        <mxCell id="t_oKpIWRtJAieLj8-OlJ-72" value="" style="rounded=0;orthogonalLoop=1;jettySize=auto;html=1;endArrow=halfCircle;endFill=0;endSize=6;strokeWidth=1;sketch=0;exitX=0.5;exitY=0;exitDx=0;exitDy=0;" edge="1" target="t_oKpIWRtJAieLj8-OlJ-74" parent="1" source="t_oKpIWRtJAieLj8-OlJ-70">
          <mxGeometry relative="1" as="geometry">
            <mxPoint x="495" y="515" as="sourcePoint" />
          </mxGeometry>
        </mxCell>
        <mxCell id="t_oKpIWRtJAieLj8-OlJ-73" value="" style="rounded=0;orthogonalLoop=1;jettySize=auto;html=1;endArrow=oval;endFill=0;sketch=0;sourcePerimeterSpacing=0;targetPerimeterSpacing=0;endSize=10;exitX=0.75;exitY=1;exitDx=0;exitDy=0;" edge="1" target="t_oKpIWRtJAieLj8-OlJ-74" parent="1" source="t_oKpIWRtJAieLj8-OlJ-41">
          <mxGeometry relative="1" as="geometry">
            <mxPoint x="455" y="515" as="sourcePoint" />
          </mxGeometry>
        </mxCell>
        <mxCell id="t_oKpIWRtJAieLj8-OlJ-74" value="" style="ellipse;whiteSpace=wrap;html=1;align=center;aspect=fixed;fillColor=none;strokeColor=none;resizable=0;perimeter=centerPerimeter;rotatable=0;allowArrows=0;points=[];outlineConnect=1;" vertex="1" parent="1">
          <mxGeometry x="470" y="510" width="10" height="10" as="geometry" />
        </mxCell>
        <mxCell id="t_oKpIWRtJAieLj8-OlJ-75" value="" style="rounded=0;orthogonalLoop=1;jettySize=auto;html=1;endArrow=halfCircle;endFill=0;endSize=6;strokeWidth=1;sketch=0;exitX=1;exitY=0.5;exitDx=0;exitDy=0;" edge="1" target="t_oKpIWRtJAieLj8-OlJ-77" parent="1" source="t_oKpIWRtJAieLj8-OlJ-70">
          <mxGeometry relative="1" as="geometry">
            <mxPoint x="770" y="575" as="sourcePoint" />
          </mxGeometry>
        </mxCell>
        <mxCell id="t_oKpIWRtJAieLj8-OlJ-76" value="" style="rounded=0;orthogonalLoop=1;jettySize=auto;html=1;endArrow=oval;endFill=0;sketch=0;sourcePerimeterSpacing=0;targetPerimeterSpacing=0;endSize=10;exitX=1;exitY=1;exitDx=0;exitDy=0;" edge="1" target="t_oKpIWRtJAieLj8-OlJ-77" parent="1" source="t_oKpIWRtJAieLj8-OlJ-21">
          <mxGeometry relative="1" as="geometry">
            <mxPoint x="730" y="575" as="sourcePoint" />
            <Array as="points">
              <mxPoint x="780" y="370" />
            </Array>
          </mxGeometry>
        </mxCell>
        <mxCell id="t_oKpIWRtJAieLj8-OlJ-77" value="" style="ellipse;whiteSpace=wrap;html=1;align=center;aspect=fixed;fillColor=none;strokeColor=none;resizable=0;perimeter=centerPerimeter;rotatable=0;allowArrows=0;points=[];outlineConnect=1;" vertex="1" parent="1">
          <mxGeometry x="745" y="570" width="10" height="10" as="geometry" />
        </mxCell>
        <mxCell id="t_oKpIWRtJAieLj8-OlJ-78" value="" style="rounded=0;orthogonalLoop=1;jettySize=auto;html=1;endArrow=halfCircle;endFill=0;endSize=6;strokeWidth=1;sketch=0;exitX=0.399;exitY=1.011;exitDx=0;exitDy=0;exitPerimeter=0;" edge="1" target="t_oKpIWRtJAieLj8-OlJ-80" parent="1" source="t_oKpIWRtJAieLj8-OlJ-70">
          <mxGeometry relative="1" as="geometry">
            <mxPoint x="590" y="685" as="sourcePoint" />
            <Array as="points">
              <mxPoint x="570" y="685" />
            </Array>
          </mxGeometry>
        </mxCell>
        <mxCell id="t_oKpIWRtJAieLj8-OlJ-79" value="" style="rounded=0;orthogonalLoop=1;jettySize=auto;html=1;endArrow=oval;endFill=0;sketch=0;sourcePerimeterSpacing=0;targetPerimeterSpacing=0;endSize=10;exitX=0.5;exitY=0;exitDx=0;exitDy=0;" edge="1" target="t_oKpIWRtJAieLj8-OlJ-80" parent="1" source="t_oKpIWRtJAieLj8-OlJ-68">
          <mxGeometry relative="1" as="geometry">
            <mxPoint x="550" y="685" as="sourcePoint" />
          </mxGeometry>
        </mxCell>
        <mxCell id="t_oKpIWRtJAieLj8-OlJ-80" value="" style="ellipse;whiteSpace=wrap;html=1;align=center;aspect=fixed;fillColor=none;strokeColor=none;resizable=0;perimeter=centerPerimeter;rotatable=0;allowArrows=0;points=[];outlineConnect=1;" vertex="1" parent="1">
          <mxGeometry x="565" y="680" width="10" height="10" as="geometry" />
        </mxCell>
        <mxCell id="t_oKpIWRtJAieLj8-OlJ-81" value="" style="rounded=0;orthogonalLoop=1;jettySize=auto;html=1;endArrow=halfCircle;endFill=0;endSize=6;strokeWidth=1;sketch=0;fontSize=12;curved=1;exitX=0.804;exitY=1.025;exitDx=0;exitDy=0;exitPerimeter=0;" edge="1" parent="1" source="t_oKpIWRtJAieLj8-OlJ-70">
          <mxGeometry relative="1" as="geometry">
            <mxPoint x="705" y="665" as="sourcePoint" />
            <mxPoint x="750" y="700" as="targetPoint" />
          </mxGeometry>
        </mxCell>
        <mxCell id="t_oKpIWRtJAieLj8-OlJ-82" value="" style="ellipse;whiteSpace=wrap;html=1;align=center;aspect=fixed;fillColor=none;strokeColor=none;resizable=0;perimeter=centerPerimeter;rotatable=0;allowArrows=0;points=[];outlineConnect=1;" vertex="1" parent="1">
          <mxGeometry x="680" y="660" width="10" height="10" as="geometry" />
        </mxCell>
        <mxCell id="t_oKpIWRtJAieLj8-OlJ-83" value="Płatność" style="text;align=center;fontStyle=1;verticalAlign=middle;spacingLeft=3;spacingRight=3;strokeColor=none;rotatable=0;points=[[0,0.5],[1,0.5]];portConstraint=eastwest;html=1;" vertex="1" parent="1">
          <mxGeometry x="720" y="720" width="80" height="26" as="geometry" />
        </mxCell>
        <mxCell id="t_oKpIWRtJAieLj8-OlJ-84" value="" style="rounded=0;orthogonalLoop=1;jettySize=auto;html=1;endArrow=halfCircle;endFill=0;endSize=6;strokeWidth=1;sketch=0;exitX=1;exitY=0.75;exitDx=0;exitDy=0;" edge="1" target="t_oKpIWRtJAieLj8-OlJ-86" parent="1" source="t_oKpIWRtJAieLj8-OlJ-70">
          <mxGeometry relative="1" as="geometry">
            <mxPoint x="850" y="545" as="sourcePoint" />
          </mxGeometry>
        </mxCell>
        <mxCell id="t_oKpIWRtJAieLj8-OlJ-85" value="" style="rounded=0;orthogonalLoop=1;jettySize=auto;html=1;endArrow=oval;endFill=0;sketch=0;sourcePerimeterSpacing=0;targetPerimeterSpacing=0;endSize=10;exitX=1;exitY=1;exitDx=0;exitDy=0;" edge="1" target="t_oKpIWRtJAieLj8-OlJ-86" parent="1" source="t_oKpIWRtJAieLj8-OlJ-15">
          <mxGeometry relative="1" as="geometry">
            <mxPoint x="900" y="40" as="sourcePoint" />
            <Array as="points">
              <mxPoint x="890" y="170" />
            </Array>
          </mxGeometry>
        </mxCell>
        <mxCell id="t_oKpIWRtJAieLj8-OlJ-86" value="" style="ellipse;whiteSpace=wrap;html=1;align=center;aspect=fixed;fillColor=none;strokeColor=none;resizable=0;perimeter=centerPerimeter;rotatable=0;allowArrows=0;points=[];outlineConnect=1;" vertex="1" parent="1">
          <mxGeometry x="770" y="610" width="10" height="10" as="geometry" />
        </mxCell>
        <mxCell id="t_oKpIWRtJAieLj8-OlJ-87" value="" style="rounded=0;orthogonalLoop=1;jettySize=auto;html=1;endArrow=halfCircle;endFill=0;endSize=6;strokeWidth=1;sketch=0;exitX=0.355;exitY=-0.025;exitDx=0;exitDy=0;exitPerimeter=0;" edge="1" target="t_oKpIWRtJAieLj8-OlJ-89" parent="1" source="t_oKpIWRtJAieLj8-OlJ-36">
          <mxGeometry relative="1" as="geometry">
            <mxPoint x="505" y="213" as="sourcePoint" />
          </mxGeometry>
        </mxCell>
        <mxCell id="t_oKpIWRtJAieLj8-OlJ-88" value="" style="rounded=0;orthogonalLoop=1;jettySize=auto;html=1;endArrow=oval;endFill=0;sketch=0;sourcePerimeterSpacing=0;targetPerimeterSpacing=0;endSize=10;exitX=0;exitY=0.5;exitDx=0;exitDy=0;" edge="1" target="t_oKpIWRtJAieLj8-OlJ-89" parent="1" source="t_oKpIWRtJAieLj8-OlJ-15">
          <mxGeometry relative="1" as="geometry">
            <mxPoint x="465" y="213" as="sourcePoint" />
          </mxGeometry>
        </mxCell>
        <mxCell id="t_oKpIWRtJAieLj8-OlJ-89" value="" style="ellipse;whiteSpace=wrap;html=1;align=center;aspect=fixed;fillColor=none;strokeColor=none;resizable=0;perimeter=centerPerimeter;rotatable=0;allowArrows=0;points=[];outlineConnect=1;" vertex="1" parent="1">
          <mxGeometry x="480" y="208" width="10" height="10" as="geometry" />
        </mxCell>
      </root>
    </mxGraphModel>
  </diagram>
</mxfile>
